<?xml version="1.0" encoding="utf-8"?>
<!-- Generator: Adobe Illustrator 23.0.6, SVG Export Plug-In . SVG Version: 6.00 Build 0)  -->
<svg version="1.1" id="Layer_1" xmlns="http://www.w3.org/2000/svg" xmlns:xlink="http://www.w3.org/1999/xlink" x="0px" y="0px"
	 width="864px" height="864px" viewBox="0 0 864 864" enable-background="new 0 0 864 864" xml:space="preserve">
<g>
	<path d="M844.3832,412.3698l-57.4499,24.8452l1.0945,3.8857c0,0,14.5638-3.2007,21.6209,3.2793
		c2.6535,2.437,6.1952,5.5171,6.1952,20.4004v0.0371c0.1382,2.0332,0,82.5181,0,82.5181c0,43.6128,1.2838,56.3516-9.4618,75.7061
		c-9.8823,17.8008-25.4584,28.4502-50.0078,30.2769c-16.8096,1.2505-40.1766-3.249-52.9575-23.334
		c-7.0148-11.022-12.2396-25.6582-12.2396-45.9546l-0.0035-120.4927h-0.1349v-66.7246c0,0,1.114-4.3242-4.7974-6.3701
		c-2.7095-0.9365-7.0604-0.4248-7.0604-0.4248v180.5938c0,0-0.1174,23.9326,4.1072,38.3286
		c3.582,12.2012,8.3917,21.498,13.3151,28.5078c3.9199,5.1304,8.5475,9.9277,14.3204,14.2471
		c29.5658,22.1304,80.0676,10.9258,99.5253-15.5889c12.3412-16.8179,17.7377-31.0332,17.7377-57.9106v-124.043
		c0.0806-13.9595,3.9164-22.8809,7.4947-27.9238c2.9603-4.1729,6.5403-7.0928,10.3184-9.7881L844.3832,412.3698z"/>
	<path d="M286.8978,553.4797c-46.6202,3.2388-81.7909,43.6606-78.5586,90.2808c0.4479,6.4482,1.6154,12.6748,3.4076,18.6133
		c-21.3505-0.1108-41.7522-2.2886-54.1335-8.71c-13.027-6.7559-14.8442-29.9233-14.8442-29.9233V409.9973
		c0,0,0.861-16.5,3.0714-21.4331c2.9163-6.5063,7.5097-13.394,9.7436-15.5698c0,0-1.3826-1.8721-1.4553-2.0181
		c-4.6887,3.2944-10.9356,10.0532-22.6463,17.48v223.5283c0,0,0.1558,24.6016,4.1082,33.1123
		c10.5985,22.8262,35.3563,29.335,54.9586,30.6655c63.7949-0.7144,105.7896-16.627,105.7896-16.627l-1.0781-3.6343
		c0,0-12.7581,2.0791-30.8181,3.9517c-1.2493-5.3076-2.3672-10.8184-3.314-16.5137c-7.1986-43.3975-1.6699-79.6558,18.4165-83.8037
		c22.7716-4.7046,37.2936,29.96,44.494,73.3628c7.1989,43.396,3.3087,79.519-18.4138,83.7964
		c-16.0913,3.1636-29.3854-16.0664-37.9713-44.7041c-12.6277,3.356-28.7994,7.2109-47.0267,10.5444
		c15.9644,25.9873,45.4591,42.4429,77.9929,40.1831c46.6202-3.2368,81.791-43.6582,78.5551-90.2754
		C373.9409,585.4191,333.5207,550.2463,286.8978,553.4797z"/>
	<path d="M557.4412,455.1227l-1.6253-2.1719c0,0-34.985,19.8867-53.4688,66.2603c-0.5817,1.4536-47.0985,135.7451-47.0985,135.7451
		l-20.6084-80.3301c0,0-3.4052-14.7217-8.25-20.4072c-5.8403-6.8574-16.2994-7.9238-16.2994-7.9238h-53.1704l-0.1732,2.1157
		c0,0,9.2953,1.5977,15.0569,9.0381c5.7572,7.4385,10.4225,24.1025,10.4225,24.1025l31.1974,112.5986
		c0,0,3.5547,8.9609,9.834,14.5518c6.2799,5.5894,20.6934,5.1182,20.6934,5.1182l4.3491-0.0684
		c0,0,61.2454-190.8901,61.7463-192.5049C521.4211,484.6467,557.4412,455.1227,557.4412,455.1227z"/>
	<path d="M134.3626,655.5534c-11.3279-18.7324-9.7717-40.1904-9.7717-40.1904V392.5222
		c-10.4907,5.7534-24.5336,11.6069-43.8837,16.3374c-23.3382,5.7041-48.9228,4.2915-60.7272,4.3867v3.6792
		c3.0231,0.0894,35.0428,5.3906,43.8591,16.522c7.5999,9.5977,9.1219,25.2222,9.1219,25.2222l0.1042,169.4707
		c0,0-0.8082,11.6914-8.782,20.3613C58.426,654.8703,18,664.819,18,664.819l0.3599,4.3262c0,0,31.0599-11.4917,98.5443,0.5381
		c15.1902,2.7095,29.7769,4.3667,43.6421,5.2686C150.0327,671.4133,140.3423,665.4445,134.3626,655.5534z"/>
	<path d="M672.287,391.0764c0,0-19.0041,4.1846-39.6021,13.7515c-20.5997,9.5649-39.6159,24.2422-39.6159,24.2422l1.9582,3.0283
		c0,0,13.6987-8.2988,20.7554-1.8193c7.0552,6.4771,6.2514,29.5537,6.2514,29.5537l0.021,94.4771
		c0,0.7026,0.0279,1.377,0.0367,2.0703c3.4681,0.2666,33.7469,3.2549,46.6522,26.6675c2.0632,3.7378,3.904,7.498,5.6504,11.2534
		c-1.5503-9.6299-2.1072-17.8921-2.1072-17.8921V391.0764z"/>
	<path d="M575.2017,554.1349c-24.6702,0-56.9246,6.3667-73.8216,34.1616c-17.1965,28.2905-15.676,56.7197-14.3308,60.7397
		c0,0,27.8911-1.9131,40.2569,21.5c36.0009,68.1709,72.2679,76.543,72.2679,76.543l0.8934-3.2749
		c0,0-30.9268-17.9883-42.3887-41.3628c-10.3167-21.0269-13.93-52.3232-13.93-52.3232h90.167
		c7.2389,0,11.2606-0.1309,12.0644-0.3994c4.5575-0.8037,6.8345-3.2173,6.8345-7.2388c0-20.106-6.9449-51.3774-23.7209-67.4722
		C615.2048,561.3005,595.8435,554.1349,575.2017,554.1349z M542.942,640.0475c-5.4383-61.6367,7.9872-77.9556,26.3747-79.1377
		c33.9253-2.1875,37.0255,78.7554,37.0255,78.7554L542.942,640.0475z"/>
	<path d="M262.6452,532.9055c24.353,0.6035,194.7838,5.1943,194.7838,5.1943l1.7814-71.1528c0,0-36.3573,34.4224-36.3649,34.6543
		c-40.9814-1.0977-140.0966-3.7598-159.3163-4.2373c-15.311-0.3779-30.382-7.7368-40.3171-19.687
		c-8.9633-10.7813-12.749-23.8984-10.6599-36.9331c2.0585-12.8418,7.2244-23.0308,15.7925-31.1479
		c15.8586-15.0244,37.7454-17.2627,37.9626-17.2822l0.8186-0.0918l46.2792-6.1133l8.2371-46.3833
		c0.0194-0.1226,3.4491-22.1069,19.3143-37.1377c8.5256-8.0771,18.932-12.6812,31.8091-14.0771
		c12.6638-1.3726,25.155,2.8237,35.1689,11.8076c11.7443,10.5366,18.759,26.4102,18.7629,42.4624
		c0.0076,7.377-0.9033,45.1333-1.8909,83.8511l36.4272-34.5112c0.5928-24.3877,1.0244-44.0405,1.0188-49.3564
		c-0.0107-26.3667-11.1536-51.4868-30.5747-68.9092c-17.6282-15.8164-39.9102-23.167-62.746-20.6929
		c-20.6071,2.2354-38.2465,10.1802-52.4279,23.6157c-23.8046,22.5522-29.3313,53.2656-30.0112,57.6509l-3.5334,19.8418
		l-20.2206,2.6665c-4.6338,0.4883-35.2477,4.4888-58.8478,26.8477c-14.2501,13.5-23.1494,30.7744-26.4497,51.3286
		c-3.7288,23.3218,2.8119,46.5093,18.4326,65.2964C212.5097,520.4196,236.8496,532.2682,262.6452,532.9055z"/>
	<path d="M275.459,346.3478c1.302-15.4937,4.6295-27.522,10.8567-40.436c-14.0787-14.9009-22.6488-23.876-23.6997-25.0718
		c-27.7745-32.3115-27.2189-77.1206,1.3396-104.1768c2.3074-2.186,4.8151-4.2646,7.4473-6.1787
		c58.012-42.1333,103.8373,3.3506,104.2832,3.8213c8.2476,8.7051,35.7878,37.4678,35.7878,37.4678l12.2299,12.7734l50.465-47.8105
		c1.9292-1.8276,47.9094-44.2493,104.4275,1.0566c15.3909,12.3442,24.3494,30.7188,25.2208,51.7417
		c0.9445,22.8784-8.098,45.6323-24.1789,60.8672c-19.7602,18.7207-162.3147,153.9731-162.3147,153.9731l-85.9086-90.6748
		l-7.2747,44.1055l92.0325,97.1455c0,0,164.0274-156.1069,187.9171-178.7402c23.4318-22.1992,36.6097-55.1494,35.2499-88.1402
		c-1.2969-31.4434-14.972-59.147-38.5027-78.0146c-64.3539-51.593-126.9934-21.9919-151.1227,0.8677l-24.7864,23.4829
		c-8.418-8.7988-18.8771-19.7461-23.4315-24.5537c-18.3916-19.4128-81.3577-58.7073-150.9854-8.1313
		c-3.8762,2.8145-7.5828,5.8853-11.0085,9.1309c-41.8794,39.6763-43.5455,106.98-3.7971,153.2188
		C237.1615,305.7687,252.6867,322.2531,275.459,346.3478z"/>
</g>
</svg>
